<?xml version="1.0" standalone="no"?>
<!DOCTYPE svg PUBLIC "-//W3C//DTD SVG 20010904//EN"
 "http://www.w3.org/TR/2001/REC-SVG-20010904/DTD/svg10.dtd">
<svg version="1.0" xmlns="http://www.w3.org/2000/svg"
 width="254.000000pt" height="254.000000pt" viewBox="0 0 254.000000 254.000000"
 preserveAspectRatio="xMidYMid meet">
<metadata>
Created by potrace 1.11, written by Peter Selinger 2001-2013
</metadata>
<g transform="translate(0.000000,254.000000) scale(0.100000,-0.100000)"
fill="#000000" stroke="none">
<path d="M647 2283 c-15 -14 -5 -35 35 -79 41 -44 101 -79 122 -70 7 3 7 5 -1
5 -6 1 -21 17 -33 36 -30 49 -91 115 -105 115 -6 0 -15 -3 -18 -7z"/>
<path d="M1434 2254 c3 -7 -2 -10 -13 -7 -10 2 -23 -3 -30 -11 -12 -14 -10
-16 12 -16 13 0 30 6 36 14 6 8 23 16 36 19 20 3 33 -5 67 -44 23 -27 49 -49
58 -48 10 0 7 4 -7 11 -14 7 -23 20 -23 34 0 17 -7 25 -26 30 -19 5 -22 9 -12
15 15 10 11 11 -55 14 -34 1 -46 -2 -43 -11z"/>
<path d="M1326 2178 c-15 -18 -30 -37 -34 -43 -4 -5 -24 -30 -44 -54 -21 -24
-35 -48 -32 -52 3 -5 0 -9 -5 -9 -6 0 -11 -5 -11 -11 0 -5 5 -7 12 -3 7 4 8 3
4 -4 -4 -7 -13 -12 -20 -12 -18 0 -37 -24 -39 -49 -1 -12 -4 -21 -8 -21 -4 0
-14 -12 -24 -26 -14 -22 -15 -28 -4 -35 16 -9 12 -14 -17 -23 -17 -5 -31 7
-77 66 -115 145 -192 211 -172 148 3 -10 1 -21 -5 -25 -8 -5 0 -20 23 -44 62
-64 177 -215 169 -220 -9 -6 -22 -37 -21 -47 1 -3 -10 -18 -24 -32 -14 -15
-27 -36 -29 -47 -2 -11 -10 -21 -18 -23 -9 -1 -75 43 -149 98 -73 56 -145 108
-159 118 l-25 17 18 -28 c10 -15 21 -42 24 -59 5 -26 27 -46 131 -120 108 -77
181 -136 143 -114 -12 6 -15 0 -12 -20 0 -4 -3 -10 -8 -13 -5 -3 -14 -19 -21
-35 -9 -20 -18 -27 -30 -23 -9 3 -78 29 -152 58 -112 43 -137 49 -153 39 -16
-9 -23 -8 -41 9 -12 12 -26 21 -30 21 -4 0 -19 9 -33 20 -31 24 -107 30 -83 6
8 -8 76 -38 150 -67 325 -126 345 -135 345 -157 0 -12 4 -24 8 -28 4 -4 -1
-12 -10 -19 -21 -15 -10 -48 14 -43 11 2 18 12 17 26 0 12 4 22 10 22 6 0 5 4
-2 9 -11 6 -11 10 0 19 20 16 154 -38 150 -61 -2 -9 3 -17 9 -17 7 0 5 -6 -5
-13 -13 -9 -19 -28 -20 -55 -1 -23 -4 -42 -7 -42 -4 0 -6 -19 -5 -42 1 -32 5
-44 18 -46 14 -3 17 4 14 45 -2 26 1 56 6 66 6 12 5 17 -4 17 -9 0 -9 3 -2 8
6 4 17 22 25 40 17 39 28 38 133 -14 83 -40 109 -44 104 -12 -2 17 -25 31
-106 67 l-104 44 6 36 6 36 -24 -29 -24 -29 -71 28 c-39 16 -71 34 -71 42 0 7
-4 13 -10 13 -6 0 -1 9 10 20 11 11 21 25 21 30 1 6 2 16 3 23 3 17 22 11 89
-30 31 -19 57 -41 57 -49 0 -8 10 -14 22 -14 12 0 41 -9 65 -21 42 -20 73 -20
73 1 0 6 -22 24 -50 41 l-50 31 15 29 c13 25 14 29 1 29 -24 0 -46 -12 -40
-21 12 -20 -20 -7 -81 34 -68 44 -75 56 -50 81 8 8 15 20 15 26 0 19 57 99 63
89 2 -2 23 -31 47 -64 24 -33 43 -62 41 -64 -1 -2 3 -8 11 -12 10 -7 9 -9 -3
-9 -9 0 -19 -9 -22 -21 -8 -28 22 -38 40 -13 14 18 18 16 72 -45 47 -52 62
-62 79 -57 36 12 26 45 -39 124 -56 68 -60 76 -49 97 7 13 9 29 5 36 -6 9 -3
11 8 6 10 -4 22 0 29 9 40 48 66 71 80 71 10 0 17 -3 16 -6 -2 -20 4 -31 16
-31 20 0 29 30 10 37 -12 4 -13 8 -3 13 8 6 5 11 -11 20 -18 10 -21 10 -15 -2
6 -10 5 -10 -5 -1 -10 9 -19 9 -39 -2 -28 -15 -61 -49 -61 -65 0 -5 -5 -12
-12 -16 -7 -5 -8 -3 -3 6 5 9 4 11 -3 6 -7 -4 -12 -14 -12 -22 0 -8 -6 -14
-12 -14 -9 0 -8 -4 2 -10 12 -8 10 -10 -10 -10 -20 0 -22 -2 -10 -10 13 -8 13
-10 -1 -10 -18 0 -93 93 -109 135 -7 20 -6 25 5 25 8 0 15 9 15 20 0 11 6 23
14 26 8 3 19 19 25 35 5 16 14 29 19 29 8 0 34 44 36 61 1 3 9 13 19 23 21 21
22 30 2 22 -8 -3 -15 -3 -15 0 0 2 12 9 26 14 17 7 24 15 20 25 -5 13 5 20 27
16 6 -1 11 29 9 50 -1 4 8 5 18 2 11 -3 20 -1 20 4 0 5 9 19 20 31 l21 22 -25
0 c-15 0 -34 -12 -50 -32z"/>
<path d="M1597 2130 c3 -11 9 -20 14 -20 5 0 9 9 9 20 0 11 -6 20 -14 20 -9 0
-12 -7 -9 -20z"/>
<path d="M1686 1952 c-2 -4 -1 -14 4 -22 7 -11 9 -9 7 8 -1 24 -3 26 -11 14z"/>
<path d="M384 1936 c-12 -32 1 -50 49 -64 26 -7 47 -19 47 -25 0 -7 30 -26 65
-43 l64 -31 -15 28 c-8 16 -21 29 -29 29 -8 0 -20 9 -27 20 -7 11 -21 20 -30
20 -10 0 -18 4 -18 9 0 5 -14 23 -32 40 -34 33 -65 40 -74 17z"/>
<path d="M1695 1901 c-3 -5 -1 -12 5 -16 5 -3 10 1 10 9 0 18 -6 21 -15 7z"/>
<path d="M1700 1850 c0 -19 3 -21 12 -12 9 9 9 15 0 24 -9 9 -12 7 -12 -12z"/>
<path d="M1700 1800 c0 -5 5 -10 11 -10 8 0 8 -4 2 -12 -16 -22 -15 -68 2 -68
12 0 15 11 13 50 -2 32 -8 50 -15 50 -7 0 -13 -4 -13 -10z"/>
<path d="M1399 1723 c-5 -64 -4 -111 2 -128 3 -10 3 -34 -2 -53 -5 -21 -3 -37
5 -44 6 -6 10 -26 8 -45 -3 -20 0 -33 7 -33 6 0 12 15 12 33 1 17 3 56 4 84 2
35 0 51 -8 46 -6 -4 -7 -1 -1 8 4 8 9 44 10 82 2 60 0 67 -17 67 -11 0 -20 -7
-20 -17z"/>
<path d="M1715 1690 c3 -6 2 -10 -2 -10 -5 0 -9 -16 -10 -35 -1 -19 3 -35 9
-35 5 0 6 -5 3 -10 -3 -6 -8 -40 -10 -78 -2 -37 -6 -84 -10 -104 -4 -30 -2
-38 10 -38 22 0 29 41 29 182 1 96 -2 129 -12 133 -7 3 -10 0 -7 -5z"/>
<path d="M1395 1387 c-4 -13 -7 -30 -9 -38 -2 -8 -6 -25 -9 -39 -4 -14 -9 -38
-12 -54 -2 -16 -8 -32 -13 -35 -5 -3 -17 -28 -27 -56 -10 -27 -25 -59 -32 -70
-7 -11 -13 -27 -13 -37 0 -10 -5 -18 -12 -18 -6 0 -8 -3 -5 -7 4 -3 -3 -17
-15 -30 -12 -12 -18 -26 -13 -30 4 -5 10 -2 12 5 3 6 8 10 13 7 14 -9 42 27
37 46 -3 12 0 19 9 19 8 0 14 7 14 16 0 8 12 40 26 70 14 31 27 66 28 80 0 13
5 24 10 24 4 0 6 9 3 20 -3 11 -2 20 3 20 7 0 11 15 26 98 7 37 -12 45 -21 9z"/>
<path d="M1676 1355 c-3 -8 0 -15 7 -15 8 0 8 -3 -2 -9 -9 -6 -11 -18 -7 -36
4 -17 3 -24 -4 -20 -5 3 -10 -2 -10 -13 0 -11 7 -23 16 -26 12 -5 15 -2 10 10
-3 8 -1 24 4 35 8 14 7 19 -2 19 -8 0 -9 3 -3 8 6 4 16 19 22 35 11 24 11 27
-6 27 -10 0 -21 -7 -25 -15z"/>
<path d="M848 1226 c-2 -22 -1 -67 0 -98 3 -49 7 -58 22 -58 22 0 35 16 20 25
-6 4 -8 16 -5 26 4 11 1 26 -5 34 -9 11 -9 15 -1 15 6 0 11 18 11 44 0 35 -4
45 -19 49 -17 4 -20 -1 -23 -37z"/>
<path d="M1650 1195 c0 -14 0 -27 1 -31 0 -3 -7 -17 -16 -31 -14 -21 -15 -27
-4 -34 18 -11 29 -11 29 0 0 5 -8 12 -17 14 -14 4 -12 5 5 6 14 1 22 7 22 20
0 10 3 33 6 50 5 24 3 31 -10 31 -10 0 -16 -9 -16 -25z"/>
<path d="M1601 1048 c-13 -27 -17 -44 -10 -49 6 -3 -1 -13 -16 -23 -18 -12
-25 -24 -22 -37 3 -10 2 -19 -2 -19 -4 0 -15 -16 -24 -35 -15 -32 -15 -35 1
-45 15 -10 15 -11 -4 -7 -13 3 -25 -3 -32 -14 -16 -25 -15 -29 7 -29 20 0 64
60 64 86 0 8 4 14 8 14 4 0 11 20 15 45 4 27 11 44 18 42 6 -2 21 -30 34 -63
13 -32 30 -71 38 -85 7 -14 11 -29 8 -32 -3 -3 1 -16 9 -29 8 -12 17 -35 21
-50 5 -20 10 -25 26 -21 22 6 26 18 9 28 -6 4 -8 13 -5 20 2 7 1 16 -3 21 -5
5 -16 34 -25 64 -15 50 -30 88 -67 175 -17 41 -19 54 -8 61 10 6 3 24 -11 24
-4 0 -17 -19 -29 -42z"/>
<path d="M1020 1053 c0 -9 8 -22 18 -30 12 -10 14 -16 5 -19 -7 -3 -13 -12
-13 -21 0 -8 6 -13 13 -11 6 3 13 23 14 45 1 33 -2 42 -18 46 -13 3 -19 0 -19
-10z"/>
<path d="M846 1033 c2 -15 4 -43 6 -60 1 -22 7 -33 18 -34 10 0 9 -3 -5 -8
-19 -8 -19 -8 3 -20 12 -6 22 -10 23 -9 9 23 4 70 -8 77 -13 7 -13 9 0 14 10
4 15 16 13 34 -2 21 -9 29 -28 31 -22 3 -25 0 -22 -25z"/>
<path d="M1228 956 c-16 -5 -28 -13 -28 -18 0 -4 -11 -8 -24 -8 -14 0 -28 -5
-31 -10 -4 -6 -11 -8 -16 -5 -5 4 -9 1 -9 -6 0 -7 -8 -5 -20 6 -11 10 -20 14
-20 9 0 -5 -4 -2 -10 6 -5 8 -12 11 -16 7 -7 -7 31 -40 49 -43 4 -1 8 -3 10
-4 8 -8 57 -7 57 1 0 6 5 7 10 4 16 -10 40 14 33 33 -6 14 -4 15 8 5 12 -10
18 -9 32 7 20 24 11 30 -25 16z"/>
<path d="M1048 953 c7 -3 16 -2 19 1 4 3 -2 6 -13 5 -11 0 -14 -3 -6 -6z"/>
<path d="M1605 900 c-3 -5 0 -10 7 -10 10 0 10 -2 -1 -9 -7 -5 -10 -14 -7 -20
4 -6 4 -17 -1 -23 -4 -7 -8 -20 -9 -28 0 -8 -4 -22 -7 -30 -4 -8 -8 -26 -10
-40 -2 -14 -11 -42 -20 -64 -9 -21 -17 -44 -17 -50 0 -6 -7 -19 -15 -30 -20
-26 -39 -126 -27 -138 13 -13 52 20 45 38 -2 7 0 21 6 32 10 18 21 63 23 90 1
6 5 12 10 12 4 0 8 20 8 45 0 26 5 45 11 45 6 0 9 6 6 13 -2 6 0 23 5 37 21
55 15 166 -7 130z"/>
<path d="M863 884 c-3 -9 -1 -20 6 -27 8 -8 11 -8 11 2 0 7 5 9 11 5 8 -5 8
-9 -1 -14 -9 -6 -10 -16 -1 -41 6 -19 12 -46 13 -61 1 -16 6 -28 11 -28 5 0 7
-6 4 -14 -3 -7 0 -19 6 -25 8 -8 8 -11 -2 -11 -7 0 -2 -14 13 -33 14 -19 23
-37 18 -42 -4 -4 4 -4 18 0 22 7 23 6 12 -8 -11 -13 -10 -21 9 -46 12 -17 26
-28 31 -25 4 3 8 -2 8 -11 0 -12 6 -15 20 -10 12 4 26 2 33 -3 11 -9 69 -24
92 -23 53 2 135 26 135 40 0 4 10 7 22 8 12 1 34 17 50 35 31 36 34 48 16 48
-9 1 -8 4 2 13 8 7 15 17 16 22 1 25 17 64 24 60 4 -3 13 2 20 10 8 10 9 15 2
15 -6 0 -9 7 -6 15 4 8 15 15 25 15 10 0 19 7 19 15 0 8 -9 15 -20 15 -11 0
-20 -4 -20 -10 0 -12 -44 -55 -64 -63 -9 -4 -16 -15 -16 -26 0 -10 -12 -27
-27 -36 -16 -10 -39 -29 -53 -43 -14 -13 -44 -33 -67 -43 -33 -14 -41 -22 -36
-35 4 -11 3 -15 -5 -10 -6 3 -14 2 -17 -4 -5 -8 -11 -8 -20 0 -8 7 -18 9 -23
6 -5 -3 -18 1 -28 9 -10 8 -27 15 -37 15 -23 0 -79 39 -72 49 2 5 -4 19 -15
32 -11 13 -23 29 -28 34 -5 6 -8 18 -6 28 1 9 -1 19 -6 22 -4 3 -6 14 -3 25 3
11 1 20 -5 20 -6 0 -8 9 -5 21 4 12 0 25 -8 30 -12 7 -12 9 0 9 11 0 11 3 1
15 -6 8 -10 18 -7 22 8 14 -9 46 -27 49 -9 1 -20 -4 -23 -12z m509 -292 c4
-14 -1 -18 -26 -19 -17 -1 -24 1 -16 4 8 3 19 12 23 19 11 18 14 18 19 -4z"/>
<path d="M1725 680 c-4 -6 1 -22 10 -36 9 -13 13 -29 10 -35 -4 -5 -1 -16 5
-24 7 -8 9 -15 5 -15 -4 0 -2 -7 5 -15 6 -8 9 -18 6 -24 -9 -14 4 -41 20 -41
8 0 11 7 8 18 -3 9 2 5 11 -10 8 -16 20 -28 25 -28 18 0 21 21 7 43 -8 12 -18
37 -21 55 -4 17 -12 32 -17 32 -5 0 -9 11 -9 25 0 14 -4 25 -10 25 -5 0 -9 3
-9 8 4 21 -3 32 -20 32 -11 0 -23 -5 -26 -10z"/>
<path d="M760 390 c-9 -6 -10 -10 -3 -10 6 0 15 5 18 10 8 12 4 12 -15 0z"/>
</g>
</svg>
